:FULLY-SPECIFIED
:DEGREES
1997
root 5.04725 16.4373 -2.29287 -60.517 -87.0628 75.4683
lowerback -5.9886 0.781135 1.54479
upperback -3.61 0.884097 -0.868888
thorax -0.320806 0.375121 -1.70941
lowerneck -14.3805 -2.11268 1.67008
upperneck 21.2064 -3.88245 1.21282
head 9.01986 -1.64775 -0.342778
rclavicle -5.1684e-015 -3.97569e-015
rhumerus -29.0017 -4.46068 -81.7338
rradius 32.6208
rwrist 18.849
rhand -25.8635 -5.15268
rfingers 7.12502
rthumb 0.677541 -35.1313
lclavicle -5.1684e-015 -3.97569e-015
lhumerus -41.6036 -5.50581 88.4566
lradius 34.3276
lwrist -8.10095
lhand -37.0483 -2.76208
lfingers 7.12502
lthumb -10.1213 26.9745
rfemur -23.3123 10.329 22.7087
rtibia 27.8867
rfoot -18.1803 -23.8311
rtoes -4.72368
lfemur -41.8712 -4.26627 -23.8396
ltibia 56.965
lfoot -13.2278 11.0004
ltoes -13.3335
1998
root 5.0621 16.4434 -2.29635 -60.8075 -87.0101 75.8654
lowerback -6.04236 0.857806 1.53447
upperback -3.63545 0.985035 -0.959976
thorax -0.311729 0.424276 -1.79106
lowerneck -14.3877 -2.12565 1.67258
upperneck 21.1146 -3.89053 1.19956
head 8.98912 -1.65262 -0.347634
rclavicle -1.82882e-014 3.97569e-015
rhumerus -28.769 -3.86887 -81.9391
rradius 33.0735
rwrist 18.4625
rhand -26.0976 -5.01378
rfingers 7.12502
rthumb 0.451515 -34.993
lclavicle -1.82882e-014 3.97569e-015
lhumerus -41.8815 -5.21611 88.2147
lradius 34.1591
lwrist -8.15348
lhand -36.9682 -2.64126
lfingers 7.12502
lthumb -10.044 27.0991
rfemur -22.6268 10.6434 22.7022
rtibia 27.3858
rfoot -18.4201 -24.2156
rtoes -4.95366
lfemur -42.1799 -4.8735 -23.7093
ltibia 54.4812
lfoot -13.2793 11.4063
ltoes -12.7849
1999
root 5.07516 16.4519 -2.29876 -60.5882 -87.0073 75.7969
lowerback -6.12345 0.925769 1.57694
upperback -3.68446 1.07038 -1.02546
thorax -0.311773 0.464373 -1.87666
lowerneck -14.373 -2.13082 1.72901
upperneck 20.9954 -3.88381 1.12224
head 8.94237 -1.65365 -0.380732
rclavicle 1.47101e-014 2.08724e-014
rhumerus -28.5909 -3.04159 -82.2242
rradius 33.6473
rwrist 17.2493
rhand -26.3337 -4.77278
rfingers 7.12502
rthumb 0.223476 -34.7524
lclavicle 1.47101e-014 2.08724e-014
lhumerus -42.2511 -4.9284 87.9841
lradius 34.1312
lwrist -8.22687
lhand -36.8454 -2.44878
lfingers 7.12502
lthumb -9.9255 27.2972
rfemur -21.9493 11.0012 22.7383
rtibia 26.7795
rfoot -18.6773 -24.707
rtoes -4.91524
lfemur -42.4298 -5.42288 -23.5346
ltibia 51.7714
lfoot -13.3144 11.804
ltoes -13.3373
2000
root 5.0877 16.4686 -2.3 -60.4853 -87.0083 75.8833
lowerback -6.2227 0.995813 1.62906
upperback -3.74983 1.15698 -1.09449
thorax -0.318035 0.504359 -1.97103
lowerneck -14.3885 -2.13253 1.8071
upperneck 20.9127 -3.87274 1.01284
head 8.91259 -1.65373 -0.428539
rclavicle -7.55382e-015 -1.03368e-014
rhumerus -28.394 -2.52621 -82.358
rradius 34.2851
rwrist 16.986
rhand -26.2963 -4.96205
rfingers 7.12502
rthumb 0.259532 -34.9416
lclavicle -7.55382e-015 -1.03368e-014
lhumerus -42.5987 -4.70882 87.7665
lradius 34.0892
lwrist -8.24271
lhand -36.8161 -2.37759
lfingers 7.12502
lthumb -9.89721 27.3698
rfemur -21.193 11.2845 22.7714
rtibia 25.9994
rfoot -18.7923 -24.922
rtoes -4.9167
lfemur -42.6549 -5.97686 -23.3284
ltibia 48.8638
lfoot -13.127 12.0872
ltoes -13.4862
2001
root 5.1013 16.4807 -2.30112 -59.7765 -87.0263 75.3636
lowerback -6.33604 1.04845 1.66294
upperback -3.8096 1.22106 -1.11747
thorax -0.312773 0.534002 -2.00868
lowerneck -14.4286 -2.13785 1.7541
upperneck 20.8801 -3.8571 0.982667
head 8.90897 -1.65284 -0.428211
rclavicle -5.1684e-015 -5.56597e-015
rhumerus -28.2084 -1.75315 -82.5178
rradius 34.8723
rwrist 16.292
rhand -26.1366 -4.8963
rfingers 7.12502
rthumb 0.413783 -34.8756
lclavicle -5.1684e-015 -5.56597e-015
lhumerus -42.924 -4.44722 87.6199
lradius 34.0698
lwrist -7.79136
lhand -36.8173 -2.57184
lfingers 7.12502
lthumb -9.8984 27.1755
rfemur -20.3997 11.5792 22.8405
rtibia 25.1053
rfoot -18.7746 -25.2584
rtoes -5.15287
lfemur -42.7243 -6.57568 -23.0609
ltibia 45.7716
lfoot -12.9924 12.377
ltoes -13.7329
2002
root 5.11453 16.4965 -2.30357 -59.5882 -87.0221 75.3327
lowerback -6.42065 1.09704 1.61953
upperback -3.86195 1.28451 -1.1316
thorax -0.31745 0.564768 -1.99409
lowerneck -14.4486 -2.14463 1.75599
upperneck 20.8534 -3.84618 0.905333
head 8.90151 -1.65525 -0.453274
rclavicle 7.95139e-015 2.78299e-015
rhumerus -28.0073 -1.05123 -82.6611
rradius 35.3581
rwrist 15.3186
rhand -26.4531 -4.6954
rfingers 7.12502
rthumb 0.108124 -34.6751
lclavicle 7.95139e-015 2.78299e-015
lhumerus -43.289 -4.22521 87.4963
lradius 34.1369
lwrist -7.67695
lhand -36.7808 -2.5583
lfingers 7.12502
lthumb -9.86319 27.1907
rfemur -19.5147 11.9812 22.8694
rtibia 24.1081
rfoot -18.7551 -25.6719
rtoes -4.97982
lfemur -42.6801 -7.17557 -22.768
ltibia 42.5006
lfoot -12.7236 12.4317
ltoes -13.8717
2003
root 5.12644 16.5119 -2.30587 -59.4643 -87.0647 75.3993
lowerback -6.51615 1.16941 1.63154
upperback -3.93812 1.3757 -1.16185
thorax -0.337916 0.607614 -2.02548
lowerneck -14.512 -2.16194 1.78621
upperneck 20.8796 -3.86593 0.849932
head 8.92012 -1.66673 -0.480492
rclavicle 0 2.98177e-015
rhumerus -27.8989 -0.465733 -82.7611
rradius 35.9573
rwrist 14.7628
rhand -26.5373 -4.71887
rfingers 7.12502
rthumb 0.0268051 -34.6986
lclavicle 0 2.98177e-015
lhumerus -43.6202 -4.16922 87.4123
lradius 34.119
lwrist -7.62764
lhand -36.8269 -2.43013
lfingers 7.12502
lthumb -9.90763 27.3167
rfemur -18.6623 12.2779 22.9547
rtibia 23.076
rfoot -18.6044 -25.9535
rtoes -5.37101
lfemur -42.5598 -7.81762 -22.372
ltibia 39.0666
lfoot -12.4076 12.4531
ltoes -13.911
2004
root 5.13419 16.528 -2.30628 -59.4865 -87.0422 75.5781
lowerback -6.67512 1.23383 1.60994
upperback -3.96547 1.45848 -1.22851
thorax -0.273105 0.648155 -2.07407
lowerneck -14.5786 -2.18129 1.78322
upperneck 20.8921 -3.89638 0.865475
head 8.93701 -1.6783 -0.479392
rclavicle 1.82882e-014 9.93923e-015
rhumerus -27.7311 -0.0504753 -82.7877
rradius 36.4735
rwrist 14.7653
rhand -26.3826 -4.6579
rfingers 7.12502
rthumb 0.176215 -34.6376
lclavicle 1.82882e-014 9.93923e-015
lhumerus -43.9102 -4.11964 87.2885
lradius 34.1643
lwrist -7.47103
lhand -36.8205 -2.43968
lfingers 7.12502
lthumb -9.90145 27.3075
rfemur -17.716 12.4366 22.9843
rtibia 21.9966
rfoot -18.6297 -26.0917
rtoes -5.46876
lfemur -42.2934 -8.55296 -22.012
ltibia 35.5084
lfoot -12.0391 12.424
ltoes -13.9379
2005
root 5.14345 16.5424 -2.30596 -59.0615 -87.0095 75.3238
lowerback -6.83684 1.26549 1.55073
upperback -3.99642 1.49955 -1.26714
thorax -0.214038 0.668504 -2.07515
lowerneck -14.5957 -2.17763 1.84976
upperneck 20.8649 -3.88758 0.790246
head 8.92768 -1.67665 -0.514676
rclavicle -1.27222e-014 1.25234e-014
rhumerus -27.588 0.789311 -83.0182
rradius 37.0831
rwrist 12.9896
rhand -26.9193 -4.57463
rfingers 7.12502
rthumb -0.342181 -34.5541
lclavicle -1.27222e-014 1.25234e-014
lhumerus -44.1521 -3.93592 87.1122
lradius 34.1481
lwrist -7.53688
lhand -36.8536 -2.34777
lfingers 7.12502
lthumb -9.9334 27.3979
rfemur -16.8066 12.4729 23.0171
rtibia 20.9317
rfoot -18.5176 -26.1464
rtoes -5.68831
lfemur -41.9824 -9.56904 -21.5029
ltibia 31.8927
lfoot -11.8067 12.607
ltoes -13.6393
2006
root 5.15465 16.5517 -2.30613 -59.5101 -87.0004 75.9373
lowerback -6.94746 1.29605 1.4335
upperback -4.03279 1.54332 -1.2623
thorax -0.191319 0.691268 -1.99959
lowerneck -14.6964 -2.17217 1.84961
upperneck 20.9154 -3.87464 0.753775
head 8.96275 -1.67254 -0.527502
rclavicle 9.54166e-015 3.18055e-015
rhumerus -27.4107 1.10102 -82.9473
rradius 37.5321
rwrist 13.3471
rhand -26.7056 -4.58546
rfingers 7.12502
rthumb -0.135763 -34.5652
lclavicle 9.54166e-015 3.18055e-015
lhumerus -44.4156 -3.80522 87.0289
lradius 34.1763
lwrist -7.80036
lhand -36.8338 -2.24496
lfingers 7.12502
lthumb -9.91427 27.5016
rfemur -15.9121 12.5862 23.039
rtibia 19.8789
rfoot -18.3675 -26.1489
rtoes -6.223
lfemur -41.6238 -10.7555 -20.8261
ltibia 28.293
lfoot -11.6185 13.1314
ltoes -13.515
